<svg width="350" height="41" viewBox="0 0 350 41" fill="none" xmlns="http://www.w3.org/2000/svg">
<path d="M1.1875 39.3672C0.984375 39.3672 0.859375 39.2031 0.8125 38.875C0.640625 37.4062 0.507812 36.2656 0.414062 35.4531C0.320312 34.6406 0.25 34.0312 0.203125 33.625C0.171875 33.2188 0.148438 32.9609 0.132812 32.8516C0.132812 32.7266 0.132812 32.6406 0.132812 32.5938C0.132812 32.4219 0.210938 32.2344 0.367188 32.0312C0.523438 31.8281 0.710938 31.7266 0.929688 31.7266C1.08594 31.7266 1.25 31.8203 1.42188 32.0078C1.60938 32.1953 1.78125 32.4141 1.9375 32.6641C2.10938 32.9141 2.25 33.1641 2.35938 33.4141C2.48438 33.6641 2.5625 33.8438 2.59375 33.9531C3 34.8125 3.4375 35.5391 3.90625 36.1328C4.39062 36.7109 4.9375 37.1797 5.54688 37.5391C6.15625 37.8828 6.84375 38.1328 7.60938 38.2891C8.375 38.4453 9.25 38.5234 10.2344 38.5234C11.9062 38.5234 13.2031 38.125 14.125 37.3281C15.0625 36.5312 15.5312 35.25 15.5312 33.4844C15.5312 32.4688 15.3047 31.5469 14.8516 30.7188C14.4141 29.8906 13.8359 29.125 13.1172 28.4219C12.3984 27.7031 11.5781 27.0234 10.6562 26.3828C9.73438 25.7422 8.78906 25.0938 7.82031 24.4375C6.85156 23.7812 5.90625 23.1016 4.98438 22.3984C4.0625 21.6797 3.24219 20.8906 2.52344 20.0312C1.80469 19.1719 1.21875 18.2188 0.765625 17.1719C0.328125 16.125 0.109375 14.9453 0.109375 13.6328C0.109375 12.8359 0.25 12.0938 0.53125 11.4062C0.828125 10.7188 1.21875 10.0938 1.70312 9.53125C2.1875 8.96875 2.75 8.46875 3.39062 8.03125C4.04688 7.57813 4.74219 7.20313 5.47656 6.90625C6.21094 6.59375 6.95312 6.35938 7.70312 6.20312C8.46875 6.04687 9.21094 5.96875 9.92969 5.96875C10.5078 5.96875 11.0859 6.02344 11.6641 6.13281C12.2578 6.22656 12.8359 6.34375 13.3984 6.48438C13.9766 6.625 14.5547 6.78125 15.1328 6.95312C15.7109 7.10938 16.2812 7.25781 16.8438 7.39844L18.3906 7.25781C18.5312 7.25781 18.6172 7.32031 18.6484 7.44531C18.6953 7.55469 18.7266 7.65625 18.7422 7.75L19.4219 13.2578C19.4219 13.3359 19.3203 13.3906 19.1172 13.4219C18.9141 13.4531 18.7578 13.4688 18.6484 13.4688C18.5547 13.4688 18.4141 13.4609 18.2266 13.4453C18.0391 13.4141 17.9297 13.3828 17.8984 13.3516C17.8516 13.3047 17.7891 13.2109 17.7109 13.0703C17.6484 12.9141 17.5781 12.75 17.5 12.5781C17.4219 12.3906 17.3359 12.2031 17.2422 12.0156C17.1641 11.8281 17.0781 11.6641 16.9844 11.5234C16.2344 10.3672 15.2734 9.50781 14.1016 8.94531C12.9297 8.36719 11.6406 8.07812 10.2344 8.07812C9.625 8.07812 9.05469 8.14844 8.52344 8.28906C7.99219 8.42969 7.53125 8.65625 7.14062 8.96875C6.75 9.26562 6.4375 9.64844 6.20312 10.1172C5.98438 10.5859 5.875 11.1484 5.875 11.8047C5.875 12.7578 6.09375 13.625 6.53125 14.4062C6.98438 15.1719 7.57031 15.8984 8.28906 16.5859C9.02344 17.2578 9.85156 17.9141 10.7734 18.5547C11.7109 19.1953 12.6562 19.8516 13.6094 20.5234C14.5781 21.1797 15.5234 21.8828 16.4453 22.6328C17.3828 23.3828 18.2109 24.2109 18.9297 25.1172C19.6641 26.0234 20.25 27.0312 20.6875 28.1406C21.1406 29.25 21.3672 30.5 21.3672 31.8906C21.3672 32.8125 21.2031 33.6719 20.875 34.4688C20.5625 35.2656 20.1328 35.9922 19.5859 36.6484C19.0391 37.2891 18.3984 37.8594 17.6641 38.3594C16.9297 38.8594 16.1406 39.2812 15.2969 39.625C14.4688 39.9531 13.6094 40.2031 12.7188 40.375C11.8438 40.5469 10.9844 40.6328 10.1406 40.6328C9.07812 40.6328 8.14844 40.5547 7.35156 40.3984C6.57031 40.2422 5.89062 40.0703 5.3125 39.8828C4.75 39.6797 4.27344 39.5 3.88281 39.3438C3.49219 39.1875 3.16406 39.1094 2.89844 39.1094C2.80469 39.1094 2.73438 39.1172 2.6875 39.1328L1.1875 39.3672ZM27.0391 21.9297H25.2812C25.0625 21.9297 24.8906 21.875 24.7656 21.7656C24.6406 21.6562 24.5703 21.5391 24.5547 21.4141C24.5547 21.3359 24.5703 21.25 24.6016 21.1562C24.6328 21.0625 24.6719 21 24.7188 20.9688C25.0312 20.7656 25.3672 20.5312 25.7266 20.2656C26.1016 19.9844 26.4688 19.6953 26.8281 19.3984C27.1875 19.1016 27.5391 18.8047 27.8828 18.5078C28.2266 18.2109 28.5312 17.9375 28.7969 17.6875C28.9531 17.5156 29.1641 17.2578 29.4297 16.9141C29.7109 16.5703 30.0234 16.2344 30.3672 15.9062C30.7266 15.5625 31.1094 15.2656 31.5156 15.0156C31.9219 14.75 32.3359 14.6172 32.7578 14.6172C32.8516 14.6172 32.9609 14.6484 33.0859 14.7109C33.2109 14.7734 33.2734 14.8516 33.2734 14.9453C33.2734 15.0547 33.2422 15.2266 33.1797 15.4609C33.1328 15.6797 33.0703 15.9297 32.9922 16.2109C32.9141 16.4922 32.8281 16.7891 32.7344 17.1016C32.6406 17.4141 32.5547 17.7188 32.4766 18.0156C32.4766 18.1406 32.4922 18.2422 32.5234 18.3203C32.5703 18.3984 32.6797 18.4453 32.8516 18.4609H38.8281C39.0781 18.4609 39.25 18.5078 39.3438 18.6016C39.4375 18.6797 39.5078 18.7891 39.5547 18.9297C39.5859 19.0078 39.6172 19.1719 39.6484 19.4219C39.6797 19.6562 39.7109 19.9219 39.7422 20.2188C39.7734 20.5 39.7969 20.7891 39.8125 21.0859C39.8438 21.3672 39.8594 21.6016 39.8594 21.7891C39.8594 21.8828 39.7969 21.9297 39.6719 21.9297H32.6172C32.5391 21.9297 32.4922 21.9453 32.4766 21.9766C32.4766 22.0078 32.4766 22.0625 32.4766 22.1406V33.7891C32.4766 34.2891 32.5391 34.7266 32.6641 35.1016C32.7891 35.4766 32.9453 35.7891 33.1328 36.0391C33.3359 36.2891 33.5625 36.4766 33.8125 36.6016C34.0625 36.7266 34.3125 36.7891 34.5625 36.7891C35.2812 36.7891 35.8672 36.6875 36.3203 36.4844C36.7734 36.2656 37.1641 36.0312 37.4922 35.7812C37.8203 35.5312 38.1094 35.3047 38.3594 35.1016C38.6094 34.8828 38.8906 34.7734 39.2031 34.7734C39.4219 34.7734 39.5469 34.8594 39.5781 35.0312C39.625 35.2031 39.6484 35.3359 39.6484 35.4297C39.6484 35.6328 39.6172 35.7969 39.5547 35.9219C39.5078 36.0312 39.4688 36.1172 39.4375 36.1797C39.4219 36.2109 39.3359 36.3438 39.1797 36.5781C39.0234 36.8125 38.8125 37.0938 38.5469 37.4219C38.2812 37.75 37.9531 38.1016 37.5625 38.4766C37.1875 38.8516 36.7656 39.2031 36.2969 39.5312C35.8281 39.8438 35.3125 40.1016 34.75 40.3047C34.2031 40.5234 33.625 40.6328 33.0156 40.6328C32.1719 40.6328 31.3828 40.4766 30.6484 40.1641C29.9141 39.8516 29.2812 39.4375 28.75 38.9219C28.2188 38.3906 27.7969 37.7891 27.4844 37.1172C27.1875 36.4453 27.0391 35.75 27.0391 35.0312V21.9297ZM42.1094 30.5078C42.1094 28.6797 42.3672 27 42.8828 25.4688C43.3984 23.9219 44.1406 22.5859 45.1094 21.4609C46.0781 20.3359 47.2578 19.4609 48.6484 18.8359C50.0547 18.2109 51.6484 17.8984 53.4297 17.8984C53.9609 17.8984 54.4375 17.9375 54.8594 18.0156C55.2812 18.0781 55.6641 18.1719 56.0078 18.2969C56.3672 18.4062 56.6953 18.5469 56.9922 18.7188C57.3047 18.875 57.6172 19.0469 57.9297 19.2344C58.2891 19.4219 58.6953 19.7578 59.1484 20.2422C59.6172 20.7266 60.0547 21.2891 60.4609 21.9297C60.8672 22.5703 61.2109 23.2578 61.4922 23.9922C61.7734 24.7109 61.9141 25.4062 61.9141 26.0781C61.9141 26.2969 61.8672 26.5391 61.7734 26.8047C61.6953 27.0547 61.5547 27.1797 61.3516 27.1797H47.5234C47.3672 27.1797 47.2578 27.3203 47.1953 27.6016C47.1484 27.8828 47.125 28.2266 47.125 28.6328C47.125 30.0078 47.3203 31.2344 47.7109 32.3125C48.1172 33.375 48.6562 34.2812 49.3281 35.0312C50 35.7656 50.7734 36.3281 51.6484 36.7188C52.5234 37.0938 53.4453 37.2812 54.4141 37.2812C55.0234 37.2812 55.6094 37.2031 56.1719 37.0469C56.7344 36.875 57.2734 36.6562 57.7891 36.3906C58.3047 36.125 58.7891 35.8281 59.2422 35.5C59.6953 35.1719 60.125 34.8438 60.5312 34.5156C60.625 34.4844 60.6875 34.4688 60.7188 34.4688C60.7656 34.4688 60.8281 34.5078 60.9062 34.5859C61.0469 34.7109 61.1875 34.8594 61.3281 35.0312C61.4688 35.1875 61.5781 35.3203 61.6562 35.4297C61.7031 35.4766 61.7266 35.5234 61.7266 35.5703C61.7266 35.6172 61.6953 35.6719 61.6328 35.7344C61.1172 36.3438 60.4844 36.9453 59.7344 37.5391C58.9844 38.1172 58.1797 38.6406 57.3203 39.1094C56.4766 39.5625 55.6094 39.9297 54.7188 40.2109C53.8281 40.4922 52.9844 40.6328 52.1875 40.6328C50.5781 40.6328 49.1484 40.3438 47.8984 39.7656C46.6484 39.1719 45.5938 38.3984 44.7344 37.4453C43.875 36.4922 43.2188 35.4141 42.7656 34.2109C42.3281 32.9922 42.1094 31.7578 42.1094 30.5078ZM55.8672 25.375C56.2734 25.375 56.4766 25.1953 56.4766 24.8359C56.4766 24.2266 56.375 23.6562 56.1719 23.125C55.9844 22.5781 55.7109 22.1016 55.3516 21.6953C54.9922 21.2734 54.5547 20.9453 54.0391 20.7109C53.5391 20.4766 52.9766 20.3594 52.3516 20.3594C51.6016 20.3594 50.9453 20.5234 50.3828 20.8516C49.8203 21.1641 49.3438 21.5469 48.9531 22C48.5625 22.4531 48.2656 22.9219 48.0625 23.4062C47.875 23.8906 47.7812 24.3047 47.7812 24.6484C47.7812 24.9141 47.8203 25.1016 47.8984 25.2109C47.9766 25.3203 48.0781 25.375 48.2031 25.375H55.8672ZM65.1719 39.2969C65.1719 39.2188 65.1953 39.0938 65.2422 38.9219C65.2891 38.7344 65.3438 38.625 65.4062 38.5938C65.6094 38.5 65.8984 38.4297 66.2734 38.3828C66.6484 38.3359 67.0234 38.2344 67.3984 38.0781C67.7734 37.9062 68.1016 37.6484 68.3828 37.3047C68.6641 36.9453 68.8047 36.4219 68.8047 35.7344V22.1641C68.8047 21.9922 68.7109 21.9062 68.5234 21.9062H65.9688C65.7812 21.9062 65.6016 21.8516 65.4297 21.7422C65.2578 21.6172 65.1719 21.4453 65.1719 21.2266C65.1719 21.0547 65.2578 20.9062 65.4297 20.7812C65.6172 20.6562 65.8438 20.5312 66.1094 20.4062C66.375 20.2812 66.6641 20.1641 66.9766 20.0547C67.3047 19.9297 67.6016 19.7969 67.8672 19.6562C68.1328 19.5 68.3516 19.3281 68.5234 19.1406C68.7109 18.9531 68.8047 18.7266 68.8047 18.4609V17.6875C68.8047 15.5 69.0859 13.3906 69.6484 11.3594C70.2109 9.32812 71.0547 7.53125 72.1797 5.96875C73.3203 4.40625 74.7344 3.15625 76.4219 2.21875C78.125 1.28125 80.1094 0.8125 82.375 0.8125C82.5938 0.8125 82.9844 0.875 83.5469 1C84.1094 1.125 84.6875 1.29688 85.2812 1.51562C85.875 1.73437 86.3984 1.99219 86.8516 2.28906C87.3047 2.58594 87.5312 2.90625 87.5312 3.25C87.5312 3.375 87.5078 3.48438 87.4609 3.57812C87.4297 3.67188 87.3906 3.78906 87.3438 3.92969C87.3125 4.00781 87.2266 4.1875 87.0859 4.46875C86.9609 4.75 86.8281 5.0625 86.6875 5.40625C86.5469 5.73438 86.4062 6.04687 86.2656 6.34375C86.1406 6.64063 86.0625 6.82813 86.0312 6.90625C86 6.96875 85.9375 7.04688 85.8438 7.14062C85.7656 7.23438 85.6797 7.28125 85.5859 7.28125C85.5547 7.28125 85.5156 7.27344 85.4688 7.25781C85.4375 7.22656 85.3438 7.14844 85.1875 7.02344C84.8281 6.72656 84.4219 6.39844 83.9688 6.03906C83.5156 5.67969 83.0312 5.34375 82.5156 5.03125C82 4.70312 81.4609 4.42969 80.8984 4.21094C80.3359 3.99219 79.7656 3.88281 79.1875 3.88281C77.9531 3.88281 77 4.0625 76.3281 4.42188C75.6719 4.78125 75.1875 5.25 74.875 5.82812C74.5625 6.40625 74.375 7.05469 74.3125 7.77344C74.2656 8.47656 74.2422 9.1875 74.2422 9.90625V18.25C74.2422 18.3438 74.2578 18.3984 74.2891 18.4141C74.3359 18.4297 74.3984 18.4375 74.4766 18.4375H79.0469C79.4844 18.4375 79.7656 18.4844 79.8906 18.5781C80.0312 18.6562 80.1328 18.8125 80.1953 19.0469C80.2891 19.4062 80.3594 19.8047 80.4062 20.2422C80.4531 20.6797 80.4766 21.0703 80.4766 21.4141C80.4766 21.6172 80.4375 21.75 80.3594 21.8125C80.2812 21.875 80.1172 21.9062 79.8672 21.9062H74.5469C74.5156 21.9062 74.4531 21.9141 74.3594 21.9297C74.2812 21.9453 74.2422 22.0156 74.2422 22.1406V35.2656C74.2422 35.9531 74.4141 36.5156 74.7578 36.9531C75.1016 37.375 75.5469 37.7109 76.0938 37.9609C76.6562 38.2109 77.2812 38.3828 77.9688 38.4766C78.6719 38.5547 79.3672 38.5938 80.0547 38.5938C80.1953 38.6094 80.2969 38.7109 80.3594 38.8984C80.4375 39.0859 80.4766 39.2188 80.4766 39.2969C80.4766 39.3281 80.4688 39.3828 80.4531 39.4609C80.4531 39.5391 80.4375 39.6172 80.4062 39.6953C80.3906 39.7734 80.3516 39.8438 80.2891 39.9062C80.2266 39.9688 80.1484 40 80.0547 40H65.4062C65.3125 39.9688 65.25 39.8672 65.2188 39.6953C65.1875 39.5234 65.1719 39.3906 65.1719 39.2969ZM92.0547 39.5312C91.5391 39.8906 90.9297 40.1719 90.2266 40.375C89.5234 40.5781 88.8203 40.6797 88.1172 40.6797C86.2109 40.6797 84.7578 40.25 83.7578 39.3906C82.7734 38.5312 82.2812 37.3672 82.2812 35.8984C82.2812 35.0547 82.4688 34.3281 82.8438 33.7188C83.2344 33.1094 83.8047 32.5703 84.5547 32.1016C85.3047 31.6328 86.2266 31.2109 87.3203 30.8359C88.4297 30.4453 89.7109 30.0625 91.1641 29.6875C91.9453 29.4844 92.5703 29.2656 93.0391 29.0312C93.5234 28.7969 93.9688 28.5703 94.375 28.3516C94.6406 28.2109 94.7891 28.0859 94.8203 27.9766C94.8672 27.8672 94.8906 27.7656 94.8906 27.6719V23.5938C94.8906 23.0781 94.8125 22.6016 94.6562 22.1641C94.5156 21.7109 94.2969 21.3203 94 20.9922C93.7031 20.6641 93.3438 20.4062 92.9219 20.2188C92.5 20.0312 92.0234 19.9375 91.4922 19.9375C91.0391 19.9375 90.6172 20.0156 90.2266 20.1719C89.8359 20.3281 89.5 20.5547 89.2188 20.8516C88.9375 21.1484 88.7109 21.5 88.5391 21.9062C88.3828 22.3125 88.3047 22.7734 88.3047 23.2891C88.3047 23.3359 88.3047 23.4062 88.3047 23.5C88.3203 23.5938 88.3359 23.6953 88.3516 23.8047C88.3672 23.8984 88.3828 23.9844 88.3984 24.0625C88.4141 24.1406 88.4219 24.1875 88.4219 24.2031C88.4062 24.2344 88.2734 24.2969 88.0234 24.3906C87.7891 24.4844 87.4922 24.5938 87.1328 24.7188C86.7891 24.8281 86.4062 24.9453 85.9844 25.0703C85.5625 25.1797 85.1562 25.2891 84.7656 25.3984C84.3906 25.5078 84.0547 25.6094 83.7578 25.7031C83.4766 25.7812 83.2812 25.8281 83.1719 25.8438C83 25.8438 82.8906 25.7578 82.8438 25.5859C82.8125 25.3984 82.7969 25.2188 82.7969 25.0469C82.7969 24.1406 83.0703 23.2578 83.6172 22.3984C84.1641 21.5391 84.8906 20.7812 85.7969 20.125C86.7188 19.4531 87.7734 18.9141 88.9609 18.5078C90.1484 18.1016 91.375 17.8984 92.6406 17.8984C93.7656 17.8984 94.7734 18.0469 95.6641 18.3438C96.5547 18.625 97.3125 19.0234 97.9375 19.5391C98.5625 20.0391 99.0391 20.625 99.3672 21.2969C99.6953 21.9531 99.8594 22.6562 99.8594 23.4062V34.5859C99.8594 34.9922 100.008 35.3594 100.305 35.6875C100.617 36 101.016 36.1562 101.5 36.1562C101.781 36.1562 102.031 36.1094 102.25 36.0156C102.484 35.9062 102.688 35.7891 102.859 35.6641C103.047 35.5234 103.203 35.4062 103.328 35.3125C103.453 35.2031 103.562 35.1484 103.656 35.1484C103.781 35.1484 103.852 35.2031 103.867 35.3125C103.883 35.4062 103.891 35.4922 103.891 35.5703C103.891 35.8359 103.852 36.1094 103.773 36.3906C103.711 36.6562 103.594 36.8516 103.422 36.9766C102.656 37.5547 101.977 38.0781 101.383 38.5469C100.789 39 100.25 39.3906 99.7656 39.7188C99.2812 40.0469 98.8438 40.2969 98.4531 40.4688C98.0625 40.6406 97.6953 40.7266 97.3516 40.7266C97.0391 40.7266 96.7578 40.6406 96.5078 40.4688C96.2734 40.2969 96.0625 40.0859 95.875 39.8359C95.7031 39.5859 95.5547 39.3203 95.4297 39.0391C95.3047 38.7422 95.1953 38.4688 95.1016 38.2188C95.0234 37.9688 94.9609 37.7656 94.9141 37.6094C94.8672 37.4531 94.8281 37.3828 94.7969 37.3984L92.0547 39.5312ZM87.7422 35.3359C87.7422 35.7578 87.8203 36.1016 87.9766 36.3672C88.1484 36.6328 88.3672 36.8359 88.6328 36.9766C88.8984 37.1172 89.1953 37.2188 89.5234 37.2812C89.8672 37.3281 90.2188 37.3516 90.5781 37.3516C90.9062 37.3516 91.3125 37.2734 91.7969 37.1172C92.2812 36.9453 92.75 36.7266 93.2031 36.4609C93.6719 36.1797 94.0703 35.8672 94.3984 35.5234C94.7266 35.1641 94.8906 34.8047 94.8906 34.4453V30.5781C94.8906 30.4062 94.8281 30.3203 94.7031 30.3203C94.6719 30.3203 94.6406 30.3281 94.6094 30.3438L89.1719 32.875C88.9531 33.0312 88.75 33.1797 88.5625 33.3203C88.3906 33.4453 88.2422 33.6016 88.1172 33.7891C87.9922 33.9609 87.8984 34.1719 87.8359 34.4219C87.7734 34.6562 87.7422 34.9609 87.7422 35.3359ZM114.039 17.2656C114.102 17.2344 114.164 17.2031 114.227 17.1719C114.305 17.1406 114.359 17.125 114.391 17.125C114.656 17.125 114.789 17.3125 114.789 17.6875V21.3438C114.836 21.5 114.898 21.5781 114.977 21.5781C115.055 21.5781 115.117 21.5781 115.164 21.5781C115.211 21.5625 115.273 21.5312 115.352 21.4844C116.352 20.9688 117.195 20.5391 117.883 20.1953C118.586 19.8359 119.188 19.5391 119.688 19.3047C120.203 19.0547 120.656 18.8672 121.047 18.7422C121.453 18.6016 121.859 18.5 122.266 18.4375C122.672 18.3594 123.117 18.3125 123.602 18.2969C124.086 18.2812 124.68 18.2734 125.383 18.2734C126.148 18.2734 126.812 18.4375 127.375 18.7656C127.938 19.0938 128.406 19.5312 128.781 20.0781C129.172 20.6094 129.484 21.2266 129.719 21.9297C129.969 22.6172 130.156 23.3281 130.281 24.0625C130.406 24.7812 130.492 25.5 130.539 26.2188C130.586 26.9219 130.609 27.5625 130.609 28.1406C130.609 28.6875 130.594 29.1953 130.562 29.6641C130.547 30.1328 130.523 30.6484 130.492 31.2109C130.477 31.7578 130.453 32.3828 130.422 33.0859C130.406 33.7891 130.398 34.6406 130.398 35.6406C130.398 36.1094 130.484 36.5 130.656 36.8125C130.828 37.125 131.047 37.3828 131.312 37.5859C131.594 37.7891 131.898 37.9453 132.227 38.0547C132.555 38.1484 132.875 38.2266 133.188 38.2891C133.5 38.3516 133.781 38.4062 134.031 38.4531C134.297 38.4844 134.5 38.5312 134.641 38.5938C134.703 38.625 134.758 38.7266 134.805 38.8984C134.852 39.0703 134.875 39.1953 134.875 39.2734C134.875 39.3672 134.859 39.5078 134.828 39.6953C134.797 39.8672 134.734 39.9688 134.641 40H121.562C121.469 39.9688 121.406 39.8672 121.375 39.6953C121.344 39.5078 121.328 39.3672 121.328 39.2734C121.328 39.1953 121.352 39.0703 121.398 38.8984C121.445 38.7266 121.5 38.625 121.562 38.5938C121.766 38.5 122.031 38.4297 122.359 38.3828C122.703 38.3203 123.047 38.1953 123.391 38.0078C123.75 37.8203 124.07 37.5391 124.352 37.1641C124.648 36.7734 124.844 36.2031 124.938 35.4531C124.969 35.2188 124.992 35 125.008 34.7969C125.039 34.5938 125.062 34.3906 125.078 34.1875C125.094 33.9688 125.102 33.7344 125.102 33.4844C125.117 33.2344 125.125 32.9453 125.125 32.6172C125.125 31.9141 125.117 31.1641 125.102 30.3672C125.086 29.5703 125.078 28.6797 125.078 27.6953C125.078 26.9297 125.039 26.1719 124.961 25.4219C124.898 24.6719 124.727 24 124.445 23.4062C124.18 22.8125 123.781 22.3281 123.25 21.9531C122.719 21.5781 121.984 21.3906 121.047 21.3906C120.719 21.3906 120.422 21.4141 120.156 21.4609C119.906 21.4922 119.594 21.5781 119.219 21.7188C118.859 21.8594 118.383 22.0703 117.789 22.3516C117.195 22.6328 116.398 23.0156 115.398 23.5C115.273 23.5781 115.141 23.6719 115 23.7812C114.875 23.875 114.805 24 114.789 24.1562V35.6406C114.789 36.3438 114.93 36.8828 115.211 37.2578C115.492 37.6172 115.82 37.8828 116.195 38.0547C116.57 38.2109 116.945 38.3203 117.32 38.3828C117.695 38.4297 117.984 38.5 118.188 38.5938C118.25 38.625 118.305 38.7266 118.352 38.8984C118.398 39.0703 118.422 39.1953 118.422 39.2734C118.422 39.3672 118.406 39.5078 118.375 39.6953C118.344 39.8672 118.281 39.9688 118.188 40H105.953C105.859 39.9688 105.797 39.8672 105.766 39.6953C105.734 39.5078 105.719 39.3672 105.719 39.2734C105.719 39.1953 105.742 39.0703 105.789 38.8984C105.836 38.7266 105.891 38.625 105.953 38.5938C106.156 38.5 106.445 38.4297 106.82 38.3828C107.195 38.3203 107.57 38.2109 107.945 38.0547C108.32 37.8828 108.648 37.6172 108.93 37.2578C109.211 36.8828 109.352 36.3438 109.352 35.6406V23.7344C109.352 23.3594 109.25 23.0703 109.047 22.8672C108.844 22.6484 108.586 22.4844 108.273 22.375C107.961 22.2656 107.625 22.1797 107.266 22.1172C106.906 22.0391 106.562 21.9531 106.234 21.8594C106.141 21.8281 106.062 21.7891 106 21.7422C105.953 21.6797 105.93 21.5625 105.93 21.3906C105.93 21.3125 105.953 21.2344 106 21.1562C106.047 21.0781 106.141 21 106.281 20.9219L114.039 17.2656ZM137.102 29.0547C137.102 27.5859 137.422 26.1797 138.062 24.8359C138.719 23.4922 139.594 22.3047 140.688 21.2734C141.781 20.2422 143.055 19.4219 144.508 18.8125C145.961 18.2031 147.492 17.8984 149.102 17.8984C150.789 17.8984 152.391 18.1875 153.906 18.7656C155.422 19.3438 156.75 20.1406 157.891 21.1562C159.047 22.1562 159.961 23.3438 160.633 24.7188C161.305 26.0781 161.641 27.5547 161.641 29.1484C161.641 30.7734 161.328 32.2891 160.703 33.6953C160.094 35.0859 159.242 36.2969 158.148 37.3281C157.055 38.3594 155.75 39.1719 154.234 39.7656C152.734 40.3438 151.094 40.6328 149.312 40.6328C147.547 40.6328 145.914 40.3359 144.414 39.7422C142.93 39.1328 141.641 38.3125 140.547 37.2812C139.469 36.2344 138.625 35.0078 138.016 33.6016C137.406 32.1953 137.102 30.6797 137.102 29.0547ZM143.102 27.5781C143.102 28.4219 143.164 29.2969 143.289 30.2031C143.414 31.0938 143.602 31.9688 143.852 32.8281C144.102 33.6719 144.414 34.4688 144.789 35.2188C145.18 35.9688 145.641 36.6328 146.172 37.2109C146.703 37.7734 147.305 38.2188 147.977 38.5469C148.648 38.875 149.406 39.0391 150.25 39.0391C151.172 39.0391 151.961 38.8047 152.617 38.3359C153.289 37.8516 153.836 37.2266 154.258 36.4609C154.695 35.6953 155.016 34.8359 155.219 33.8828C155.422 32.9297 155.523 31.9766 155.523 31.0234C155.523 30.2578 155.453 29.4531 155.312 28.6094C155.172 27.75 154.961 26.9062 154.68 26.0781C154.398 25.2344 154.055 24.4297 153.648 23.6641C153.242 22.8984 152.766 22.2266 152.219 21.6484C151.688 21.0547 151.086 20.5859 150.414 20.2422C149.758 19.8984 149.039 19.7266 148.258 19.7266C147.383 19.7266 146.617 19.9688 145.961 20.4531C145.32 20.9219 144.789 21.5391 144.367 22.3047C143.945 23.0547 143.625 23.8984 143.406 24.8359C143.203 25.7578 143.102 26.6719 143.102 27.5781ZM178.773 23.6875C178.773 21.9375 178.992 20.2891 179.43 18.7422C179.867 17.1797 180.484 15.7422 181.281 14.4297C182.078 13.1172 183.039 11.9375 184.164 10.8906C185.289 9.84375 186.531 8.96094 187.891 8.24219C189.266 7.50781 190.734 6.94531 192.297 6.55469C193.859 6.16406 195.492 5.96875 197.195 5.96875C198.633 5.96875 200.016 6.10156 201.344 6.36719C202.688 6.61719 204.07 6.91406 205.492 7.25781C205.727 7.32031 205.969 7.39844 206.219 7.49219C206.484 7.58594 206.727 7.67969 206.945 7.77344C207.18 7.85156 207.391 7.92187 207.578 7.98438C207.766 8.04688 207.906 8.07812 208 8.07812C208.031 8.07812 208.133 8.04688 208.305 7.98438C208.492 7.92187 208.625 7.89062 208.703 7.89062H209.781C209.969 7.89062 210.062 8.02344 210.062 8.28906V15.9297C210.062 16.0234 210.023 16.0859 209.945 16.1172C209.883 16.1484 209.734 16.1641 209.5 16.1641C209.453 16.1641 209.328 16.1641 209.125 16.1641C208.938 16.1484 208.82 16.1016 208.773 16.0234C208.742 15.9766 208.68 15.8828 208.586 15.7422C208.508 15.6016 208.414 15.4609 208.305 15.3203C208.211 15.1641 208.117 15.0234 208.023 14.8984C207.945 14.7578 207.898 14.6641 207.883 14.6172C207.289 13.4453 206.641 12.4609 205.938 11.6641C205.234 10.8516 204.453 10.1953 203.594 9.69531C202.75 9.19531 201.828 8.83594 200.828 8.61719C199.828 8.38281 198.742 8.26562 197.57 8.26562C196.086 8.26562 194.766 8.4375 193.609 8.78125C192.469 9.125 191.469 9.60938 190.609 10.2344C189.75 10.8594 189.023 11.6094 188.43 12.4844C187.852 13.3594 187.375 14.3203 187 15.3672C186.641 16.3984 186.375 17.5078 186.203 18.6953C186.047 19.8672 185.969 21.0781 185.969 22.3281C185.969 23.6562 186.062 24.9766 186.25 26.2891C186.438 27.5859 186.742 28.8281 187.164 30.0156C187.586 31.1875 188.125 32.2812 188.781 33.2969C189.453 34.2969 190.258 35.1719 191.195 35.9219C192.133 36.6562 193.227 37.2344 194.477 37.6562C195.727 38.0781 197.141 38.2891 198.719 38.2891C200.047 38.2891 201.281 38.0938 202.422 37.7031C203.578 37.2969 204.633 36.7578 205.586 36.0859C206.539 35.3984 207.383 34.6172 208.117 33.7422C208.867 32.8516 209.508 31.9219 210.039 30.9531C210.07 30.875 210.102 30.8359 210.133 30.8359C210.18 30.8203 210.242 30.8125 210.32 30.8125H211.516C211.562 30.8125 211.609 30.8359 211.656 30.8828C211.719 30.9141 211.75 30.9922 211.75 31.1172C211.75 31.1641 211.711 31.2891 211.633 31.4922C211.57 31.6797 211.5 31.8438 211.422 31.9844L208.188 39.1094C208.156 39.1562 208.109 39.1953 208.047 39.2266C207.984 39.2578 207.93 39.2734 207.883 39.2734C207.508 39.2734 207.242 39.2422 207.086 39.1797C206.945 39.1172 206.797 39.0859 206.641 39.0859C206.172 39.0859 205.547 39.1719 204.766 39.3438C204 39.5 203.164 39.6719 202.258 39.8594C201.367 40.0469 200.461 40.2188 199.539 40.375C198.633 40.5469 197.82 40.6328 197.102 40.6328C195.461 40.6328 193.867 40.4531 192.32 40.0938C190.773 39.7344 189.32 39.2188 187.961 38.5469C186.602 37.8594 185.359 37.0234 184.234 36.0391C183.109 35.0391 182.141 33.9141 181.328 32.6641C180.516 31.4141 179.883 30.0391 179.43 28.5391C178.992 27.0234 178.773 25.4062 178.773 23.6875ZM224.992 39.5312C224.477 39.8906 223.867 40.1719 223.164 40.375C222.461 40.5781 221.758 40.6797 221.055 40.6797C219.148 40.6797 217.695 40.25 216.695 39.3906C215.711 38.5312 215.219 37.3672 215.219 35.8984C215.219 35.0547 215.406 34.3281 215.781 33.7188C216.172 33.1094 216.742 32.5703 217.492 32.1016C218.242 31.6328 219.164 31.2109 220.258 30.8359C221.367 30.4453 222.648 30.0625 224.102 29.6875C224.883 29.4844 225.508 29.2656 225.977 29.0312C226.461 28.7969 226.906 28.5703 227.312 28.3516C227.578 28.2109 227.727 28.0859 227.758 27.9766C227.805 27.8672 227.828 27.7656 227.828 27.6719V23.5938C227.828 23.0781 227.75 22.6016 227.594 22.1641C227.453 21.7109 227.234 21.3203 226.938 20.9922C226.641 20.6641 226.281 20.4062 225.859 20.2188C225.438 20.0312 224.961 19.9375 224.43 19.9375C223.977 19.9375 223.555 20.0156 223.164 20.1719C222.773 20.3281 222.438 20.5547 222.156 20.8516C221.875 21.1484 221.648 21.5 221.477 21.9062C221.32 22.3125 221.242 22.7734 221.242 23.2891C221.242 23.3359 221.242 23.4062 221.242 23.5C221.258 23.5938 221.273 23.6953 221.289 23.8047C221.305 23.8984 221.32 23.9844 221.336 24.0625C221.352 24.1406 221.359 24.1875 221.359 24.2031C221.344 24.2344 221.211 24.2969 220.961 24.3906C220.727 24.4844 220.43 24.5938 220.07 24.7188C219.727 24.8281 219.344 24.9453 218.922 25.0703C218.5 25.1797 218.094 25.2891 217.703 25.3984C217.328 25.5078 216.992 25.6094 216.695 25.7031C216.414 25.7812 216.219 25.8281 216.109 25.8438C215.938 25.8438 215.828 25.7578 215.781 25.5859C215.75 25.3984 215.734 25.2188 215.734 25.0469C215.734 24.1406 216.008 23.2578 216.555 22.3984C217.102 21.5391 217.828 20.7812 218.734 20.125C219.656 19.4531 220.711 18.9141 221.898 18.5078C223.086 18.1016 224.312 17.8984 225.578 17.8984C226.703 17.8984 227.711 18.0469 228.602 18.3438C229.492 18.625 230.25 19.0234 230.875 19.5391C231.5 20.0391 231.977 20.625 232.305 21.2969C232.633 21.9531 232.797 22.6562 232.797 23.4062V34.5859C232.797 34.9922 232.945 35.3594 233.242 35.6875C233.555 36 233.953 36.1562 234.438 36.1562C234.719 36.1562 234.969 36.1094 235.188 36.0156C235.422 35.9062 235.625 35.7891 235.797 35.6641C235.984 35.5234 236.141 35.4062 236.266 35.3125C236.391 35.2031 236.5 35.1484 236.594 35.1484C236.719 35.1484 236.789 35.2031 236.805 35.3125C236.82 35.4062 236.828 35.4922 236.828 35.5703C236.828 35.8359 236.789 36.1094 236.711 36.3906C236.648 36.6562 236.531 36.8516 236.359 36.9766C235.594 37.5547 234.914 38.0781 234.32 38.5469C233.727 39 233.188 39.3906 232.703 39.7188C232.219 40.0469 231.781 40.2969 231.391 40.4688C231 40.6406 230.633 40.7266 230.289 40.7266C229.977 40.7266 229.695 40.6406 229.445 40.4688C229.211 40.2969 229 40.0859 228.812 39.8359C228.641 39.5859 228.492 39.3203 228.367 39.0391C228.242 38.7422 228.133 38.4688 228.039 38.2188C227.961 37.9688 227.898 37.7656 227.852 37.6094C227.805 37.4531 227.766 37.3828 227.734 37.3984L224.992 39.5312ZM220.68 35.3359C220.68 35.7578 220.758 36.1016 220.914 36.3672C221.086 36.6328 221.305 36.8359 221.57 36.9766C221.836 37.1172 222.133 37.2188 222.461 37.2812C222.805 37.3281 223.156 37.3516 223.516 37.3516C223.844 37.3516 224.25 37.2734 224.734 37.1172C225.219 36.9453 225.688 36.7266 226.141 36.4609C226.609 36.1797 227.008 35.8672 227.336 35.5234C227.664 35.1641 227.828 34.8047 227.828 34.4453V30.5781C227.828 30.4062 227.766 30.3203 227.641 30.3203C227.609 30.3203 227.578 30.3281 227.547 30.3438L222.109 32.875C221.891 33.0312 221.688 33.1797 221.5 33.3203C221.328 33.4453 221.18 33.6016 221.055 33.7891C220.93 33.9609 220.836 34.1719 220.773 34.4219C220.711 34.6562 220.68 34.9609 220.68 35.3359ZM242.055 39.8594C241.914 39.8594 241.789 39.8984 241.68 39.9766C241.57 40.0547 241.461 40.1406 241.352 40.2344C241.258 40.3438 241.164 40.4375 241.07 40.5156C240.977 40.5938 240.867 40.6328 240.742 40.6328H239.898C239.867 40.6328 239.82 40.4062 239.758 39.9531C239.695 39.5 239.625 38.9609 239.547 38.3359C239.484 37.6953 239.43 37.0391 239.383 36.3672C239.336 35.6797 239.312 35.1094 239.312 34.6562C239.312 34.4062 239.398 34.25 239.57 34.1875C239.758 34.1094 239.953 34.0703 240.156 34.0703C240.266 34.0703 240.383 34.1094 240.508 34.1875C240.648 34.2656 240.773 34.3672 240.883 34.4922C241.008 34.6016 241.117 34.7188 241.211 34.8438C241.305 34.9688 241.375 35.0781 241.422 35.1719C241.688 35.75 241.953 36.2734 242.219 36.7422C242.484 37.2109 242.789 37.6094 243.133 37.9375C243.477 38.2656 243.883 38.5234 244.352 38.7109C244.82 38.8828 245.383 38.9688 246.039 38.9688C246.539 38.9688 246.945 38.8828 247.258 38.7109C247.57 38.5391 247.812 38.3125 247.984 38.0312C248.156 37.75 248.266 37.4297 248.312 37.0703C248.375 36.7109 248.406 36.3359 248.406 35.9453C248.406 35.1641 248.172 34.5078 247.703 33.9766C247.234 33.4297 246.648 32.9219 245.945 32.4531C245.258 31.9844 244.5 31.5078 243.672 31.0234C242.859 30.5391 242.102 29.9766 241.398 29.3359C240.711 28.6953 240.133 27.9375 239.664 27.0625C239.195 26.1719 238.961 25.0781 238.961 23.7812C238.961 23.0312 239.195 22.3047 239.664 21.6016C240.133 20.8828 240.742 20.25 241.492 19.7031C242.242 19.1562 243.078 18.7188 244 18.3906C244.938 18.0625 245.867 17.8984 246.789 17.8984C247.273 17.8984 247.758 17.9453 248.242 18.0391C248.742 18.1172 249.195 18.2109 249.602 18.3203C250.023 18.4297 250.375 18.5391 250.656 18.6484C250.953 18.7578 251.141 18.8359 251.219 18.8828C251.328 18.9609 251.414 19.0859 251.477 19.2578C251.555 19.4141 251.602 19.6719 251.617 20.0312C251.648 20.3906 251.664 20.875 251.664 21.4844C251.68 22.0781 251.688 22.8594 251.688 23.8281C251.688 24.0938 251.586 24.2891 251.383 24.4141C251.195 24.5234 251.008 24.5781 250.82 24.5781C250.648 24.5781 250.477 24.5469 250.305 24.4844C250.148 24.4219 250.047 24.3203 250 24.1797C249.812 23.6953 249.602 23.2109 249.367 22.7266C249.133 22.2266 248.859 21.7812 248.547 21.3906C248.25 20.9844 247.898 20.6641 247.492 20.4297C247.086 20.1797 246.617 20.0547 246.086 20.0547C245.773 20.0547 245.461 20.0938 245.148 20.1719C244.836 20.25 244.555 20.4062 244.305 20.6406C244.055 20.8594 243.852 21.1641 243.695 21.5547C243.555 21.9453 243.484 22.4453 243.484 23.0547C243.484 23.5859 243.727 24.0781 244.211 24.5312C244.711 24.9844 245.328 25.4453 246.062 25.9141C246.797 26.3672 247.594 26.8594 248.453 27.3906C249.328 27.9219 250.133 28.5312 250.867 29.2188C251.602 29.9062 252.211 30.7031 252.695 31.6094C253.195 32.5 253.445 33.5547 253.445 34.7734C253.445 35.6797 253.211 36.5 252.742 37.2344C252.273 37.9531 251.672 38.5625 250.938 39.0625C250.203 39.5625 249.383 39.9453 248.477 40.2109C247.586 40.4922 246.711 40.6328 245.852 40.6328C245.414 40.6328 244.977 40.5938 244.539 40.5156C244.102 40.4375 243.703 40.3438 243.344 40.2344C242.984 40.1406 242.688 40.0547 242.453 39.9766C242.219 39.8984 242.086 39.8594 242.055 39.8594ZM257.312 30.0859C257.328 27.8203 257.672 25.9141 258.344 24.3672C259.016 22.8047 259.914 21.5469 261.039 20.5938C262.164 19.6406 263.469 18.9531 264.953 18.5312C266.453 18.1094 268.023 17.8984 269.664 17.8984C270.008 17.8984 270.414 17.9141 270.883 17.9453C271.367 17.9609 271.859 18.0078 272.359 18.0859C272.875 18.1484 273.375 18.25 273.859 18.3906C274.359 18.5312 274.805 18.7266 275.195 18.9766C275.602 19.2109 275.922 19.5078 276.156 19.8672C276.406 20.2109 276.531 20.6328 276.531 21.1328C276.531 21.5078 276.461 21.8125 276.32 22.0469C276.18 22.2656 275.984 22.4453 275.734 22.5859C275.484 22.7109 275.195 22.7969 274.867 22.8438C274.539 22.8906 274.188 22.9141 273.812 22.9141C273.375 22.9141 273 22.8438 272.688 22.7031C272.391 22.5469 272.117 22.3672 271.867 22.1641C271.617 21.9453 271.383 21.7109 271.164 21.4609C270.945 21.1953 270.703 20.9609 270.438 20.7578C270.188 20.5391 269.898 20.3594 269.57 20.2188C269.242 20.0625 268.844 19.9844 268.375 19.9844C267.281 19.9844 266.383 20.2656 265.68 20.8281C264.977 21.375 264.422 22.0781 264.016 22.9375C263.625 23.7812 263.352 24.7109 263.195 25.7266C263.055 26.7422 262.984 27.7109 262.984 28.6328C262.984 29.8828 263.102 31.0391 263.336 32.1016C263.57 33.1484 263.945 34.0547 264.461 34.8203C264.992 35.5859 265.672 36.1875 266.5 36.625C267.344 37.0469 268.359 37.2578 269.547 37.2578C269.984 37.2578 270.414 37.1875 270.836 37.0469C271.273 36.9062 271.688 36.7188 272.078 36.4844C272.484 36.2344 272.859 35.9531 273.203 35.6406C273.562 35.3281 273.891 34.9922 274.188 34.6328C274.344 34.4453 274.492 34.2891 274.633 34.1641C274.789 34.0391 275.023 33.9766 275.336 33.9766C275.711 33.9766 276.031 34.0781 276.297 34.2812C276.578 34.4688 276.719 34.6719 276.719 34.8906C276.719 34.9531 276.703 35.0391 276.672 35.1484C276.656 35.2422 276.578 35.3828 276.438 35.5703C275.844 36.3203 275.203 37.0078 274.516 37.6328C273.828 38.2578 273.094 38.7891 272.312 39.2266C271.531 39.6641 270.688 40 269.781 40.2344C268.891 40.4844 267.938 40.6094 266.922 40.6094C265.578 40.6094 264.32 40.3125 263.148 39.7188C261.992 39.1094 260.977 38.3125 260.102 37.3281C259.242 36.3281 258.562 35.2031 258.062 33.9531C257.562 32.6875 257.312 31.3984 257.312 30.0859ZM280 40C279.906 39.9688 279.844 39.8672 279.812 39.6953C279.781 39.5078 279.766 39.3672 279.766 39.2734C279.766 39.1953 279.789 39.0703 279.836 38.8984C279.883 38.7266 279.938 38.625 280 38.5938C280.203 38.5 280.492 38.4297 280.867 38.3828C281.242 38.3203 281.617 38.2109 281.992 38.0547C282.367 37.8828 282.695 37.625 282.977 37.2812C283.258 36.9219 283.398 36.3984 283.398 35.7109V24.4609C283.398 24.0859 283.297 23.7969 283.094 23.5938C282.891 23.375 282.633 23.2109 282.32 23.1016C282.008 22.9922 281.672 22.9062 281.312 22.8438C280.953 22.7656 280.609 22.6797 280.281 22.5859C280.188 22.5547 280.109 22.5156 280.047 22.4688C280 22.4062 279.977 22.2891 279.977 22.1172C279.977 22.0391 280 21.9609 280.047 21.8828C280.094 21.8047 280.188 21.7266 280.328 21.6484L288.086 17.9922C288.148 17.9609 288.211 17.9297 288.273 17.8984C288.352 17.8672 288.406 17.8516 288.438 17.8516C288.703 17.8516 288.836 18.0391 288.836 18.4141V35.7109C288.836 36.3984 288.977 36.9219 289.258 37.2812C289.539 37.625 289.867 37.8828 290.242 38.0547C290.617 38.2109 290.992 38.3203 291.367 38.3828C291.742 38.4297 292.031 38.5 292.234 38.5938C292.297 38.625 292.352 38.7266 292.398 38.8984C292.445 39.0703 292.469 39.1953 292.469 39.2734C292.469 39.3672 292.453 39.5078 292.422 39.6953C292.391 39.8672 292.328 39.9688 292.234 40H280ZM282.391 9.36719C282.391 8.36719 282.688 7.57031 283.281 6.97656C283.875 6.38281 284.672 6.08594 285.672 6.08594C286.672 6.08594 287.469 6.38281 288.062 6.97656C288.656 7.57031 288.953 8.36719 288.953 9.36719C288.953 10.3672 288.656 11.1641 288.062 11.7578C287.469 12.3359 286.672 12.625 285.672 12.625C284.672 12.625 283.875 12.3359 283.281 11.7578C282.688 11.1641 282.391 10.3672 282.391 9.36719ZM295.398 29.0547C295.398 27.5859 295.719 26.1797 296.359 24.8359C297.016 23.4922 297.891 22.3047 298.984 21.2734C300.078 20.2422 301.352 19.4219 302.805 18.8125C304.258 18.2031 305.789 17.8984 307.398 17.8984C309.086 17.8984 310.688 18.1875 312.203 18.7656C313.719 19.3438 315.047 20.1406 316.188 21.1562C317.344 22.1562 318.258 23.3438 318.93 24.7188C319.602 26.0781 319.938 27.5547 319.938 29.1484C319.938 30.7734 319.625 32.2891 319 33.6953C318.391 35.0859 317.539 36.2969 316.445 37.3281C315.352 38.3594 314.047 39.1719 312.531 39.7656C311.031 40.3438 309.391 40.6328 307.609 40.6328C305.844 40.6328 304.211 40.3359 302.711 39.7422C301.227 39.1328 299.938 38.3125 298.844 37.2812C297.766 36.2344 296.922 35.0078 296.312 33.6016C295.703 32.1953 295.398 30.6797 295.398 29.0547ZM301.398 27.5781C301.398 28.4219 301.461 29.2969 301.586 30.2031C301.711 31.0938 301.898 31.9688 302.148 32.8281C302.398 33.6719 302.711 34.4688 303.086 35.2188C303.477 35.9688 303.938 36.6328 304.469 37.2109C305 37.7734 305.602 38.2188 306.273 38.5469C306.945 38.875 307.703 39.0391 308.547 39.0391C309.469 39.0391 310.258 38.8047 310.914 38.3359C311.586 37.8516 312.133 37.2266 312.555 36.4609C312.992 35.6953 313.312 34.8359 313.516 33.8828C313.719 32.9297 313.82 31.9766 313.82 31.0234C313.82 30.2578 313.75 29.4531 313.609 28.6094C313.469 27.75 313.258 26.9062 312.977 26.0781C312.695 25.2344 312.352 24.4297 311.945 23.6641C311.539 22.8984 311.062 22.2266 310.516 21.6484C309.984 21.0547 309.383 20.5859 308.711 20.2422C308.055 19.8984 307.336 19.7266 306.555 19.7266C305.68 19.7266 304.914 19.9688 304.258 20.4531C303.617 20.9219 303.086 21.5391 302.664 22.3047C302.242 23.0547 301.922 23.8984 301.703 24.8359C301.5 25.7578 301.398 26.6719 301.398 27.5781ZM334.891 39.2969C334.891 39.3906 334.875 39.5234 334.844 39.6953C334.812 39.8672 334.75 39.9688 334.656 40H322.422C322.328 39.9688 322.266 39.8672 322.234 39.6953C322.203 39.5234 322.188 39.3906 322.188 39.2969C322.188 39.2188 322.211 39.0938 322.258 38.9219C322.305 38.75 322.359 38.6484 322.422 38.6172C322.625 38.5234 322.914 38.4531 323.289 38.4062C323.664 38.3438 324.039 38.2344 324.414 38.0781C324.789 37.9062 325.117 37.6484 325.398 37.3047C325.68 36.9453 325.82 36.4219 325.82 35.7344V8.40625C325.82 8.03125 325.719 7.74219 325.516 7.53906C325.312 7.32031 325.055 7.15625 324.742 7.04688C324.43 6.9375 324.094 6.85156 323.734 6.78906C323.375 6.71094 323.031 6.625 322.703 6.53125C322.5 6.45313 322.398 6.23437 322.398 5.875C322.398 5.79688 322.422 5.69531 322.469 5.57031C322.516 5.42969 322.609 5.32031 322.75 5.24219L330.508 1.58594C330.57 1.55469 330.641 1.52344 330.719 1.49219C330.797 1.46094 330.883 1.44531 330.977 1.44531C331.102 1.44531 331.18 1.49219 331.211 1.58594C331.242 1.66406 331.258 1.80469 331.258 2.00781V35.7344C331.258 36.4219 331.398 36.9453 331.68 37.3047C331.961 37.6484 332.289 37.9062 332.664 38.0781C333.039 38.2344 333.414 38.3438 333.789 38.4062C334.164 38.4531 334.453 38.5234 334.656 38.6172C334.719 38.6484 334.773 38.75 334.82 38.9219C334.867 39.0938 334.891 39.2188 334.891 39.2969ZM337.375 40C337.281 39.9688 337.219 39.8672 337.188 39.6953C337.156 39.5078 337.141 39.3672 337.141 39.2734C337.141 39.1953 337.164 39.0703 337.211 38.8984C337.258 38.7266 337.312 38.625 337.375 38.5938C337.578 38.5 337.867 38.4297 338.242 38.3828C338.617 38.3203 338.992 38.2109 339.367 38.0547C339.742 37.8828 340.07 37.625 340.352 37.2812C340.633 36.9219 340.773 36.3984 340.773 35.7109V24.4609C340.773 24.0859 340.672 23.7969 340.469 23.5938C340.266 23.375 340.008 23.2109 339.695 23.1016C339.383 22.9922 339.047 22.9062 338.688 22.8438C338.328 22.7656 337.984 22.6797 337.656 22.5859C337.562 22.5547 337.484 22.5156 337.422 22.4688C337.375 22.4062 337.352 22.2891 337.352 22.1172C337.352 22.0391 337.375 21.9609 337.422 21.8828C337.469 21.8047 337.562 21.7266 337.703 21.6484L345.461 17.9922C345.523 17.9609 345.586 17.9297 345.648 17.8984C345.727 17.8672 345.781 17.8516 345.812 17.8516C346.078 17.8516 346.211 18.0391 346.211 18.4141V35.7109C346.211 36.3984 346.352 36.9219 346.633 37.2812C346.914 37.625 347.242 37.8828 347.617 38.0547C347.992 38.2109 348.367 38.3203 348.742 38.3828C349.117 38.4297 349.406 38.5 349.609 38.5938C349.672 38.625 349.727 38.7266 349.773 38.8984C349.82 39.0703 349.844 39.1953 349.844 39.2734C349.844 39.3672 349.828 39.5078 349.797 39.6953C349.766 39.8672 349.703 39.9688 349.609 40H337.375ZM339.766 9.36719C339.766 8.36719 340.062 7.57031 340.656 6.97656C341.25 6.38281 342.047 6.08594 343.047 6.08594C344.047 6.08594 344.844 6.38281 345.438 6.97656C346.031 7.57031 346.328 8.36719 346.328 9.36719C346.328 10.3672 346.031 11.1641 345.438 11.7578C344.844 12.3359 344.047 12.625 343.047 12.625C342.047 12.625 341.25 12.3359 340.656 11.7578C340.062 11.1641 339.766 10.3672 339.766 9.36719Z" fill="#261815"/>
</svg>
